<svg version="1.1" id="Layer_1" xmlns="http://www.w3.org/2000/svg" xmlns:xlink="http://www.w3.org/1999/xlink" x="0px" y="0px"
	 width="100%" viewBox="0 0 180 180" enable-background="new 0 0 180 180" xml:space="preserve">
<path fill="#010101" opacity="1.000000" stroke="none" 
	d="
M125.000000,181.000000 
	C83.333336,181.000000 42.166672,181.000000 1.000005,181.000000 
	C1.000004,121.000008 1.000004,61.000011 1.000002,1.000014 
	C60.999989,1.000009 120.999977,1.000009 180.999969,1.000005 
	C180.999985,60.999985 180.999985,120.999969 181.000000,180.999969 
	C162.500000,181.000000 144.000000,181.000000 125.000000,181.000000 
M102.326347,140.785294 
	C104.734337,146.638351 109.470627,148.743561 115.412178,148.959930 
	C129.406937,149.469559 147.628006,136.738342 151.640808,123.468330 
	C152.833984,119.522568 153.427521,115.464622 149.978302,111.434486 
	C148.294052,112.973068 146.862732,114.284386 145.427277,115.591194 
	C140.388550,120.178406 135.576996,125.054192 130.238144,129.260635 
	C125.781151,132.772278 122.935257,131.345490 123.012306,125.809013 
	C123.069054,121.731476 123.657715,117.528931 124.831757,113.629707 
	C126.694160,107.444328 129.301498,101.486618 131.490082,95.395370 
	C135.825638,83.328674 140.096497,71.217377 139.174561,58.086170 
	C137.829407,38.926849 125.636772,29.119951 105.386375,31.684923 
	C95.082169,32.990082 87.453758,39.252766 80.638786,46.529110 
	C71.059265,56.757156 64.946815,69.108360 59.242760,81.731606 
	C58.456066,83.472580 56.350628,84.956696 54.509041,85.821465 
	C47.658428,89.038361 40.478752,91.603043 33.826984,95.167236 
	C31.643114,96.337410 30.687111,99.799110 29.169615,102.212921 
	C29.613224,102.740959 30.056833,103.268990 30.500444,103.797028 
	C37.618954,102.970680 44.737465,102.144333 52.369022,101.258423 
	C50.929119,107.388069 49.146755,112.643837 48.554768,118.030434 
	C47.616402,126.568756 47.132687,135.194962 47.142147,143.783203 
	C47.146736,147.951584 49.943268,150.929977 54.595818,150.906281 
	C64.474625,150.855911 71.522644,143.483749 71.939842,133.552429 
	C72.365723,123.414162 73.155472,113.285255 74.101028,103.181747 
	C74.228043,101.824562 76.166245,99.575783 77.318375,99.542137 
	C87.258347,99.251839 97.210388,99.375168 107.960686,99.375168 
	C106.808540,103.306686 105.967628,105.960815 105.254219,108.648781 
	C102.523865,118.935982 99.229797,129.172897 102.326347,140.785294 
z"/>
<path fill="#FBFBFB" opacity="1.000000" stroke="none" 
	d="
M102.198151,140.406494 
	C99.229797,129.172897 102.523865,118.935982 105.254219,108.648781 
	C105.967628,105.960815 106.808540,103.306686 107.960686,99.375168 
	C97.210388,99.375168 87.258347,99.251839 77.318375,99.542137 
	C76.166245,99.575783 74.228043,101.824562 74.101028,103.181747 
	C73.155472,113.285255 72.365723,123.414162 71.939842,133.552429 
	C71.522644,143.483749 64.474625,150.855911 54.595818,150.906281 
	C49.943268,150.929977 47.146736,147.951584 47.142147,143.783203 
	C47.132687,135.194962 47.616402,126.568756 48.554768,118.030434 
	C49.146755,112.643837 50.929119,107.388069 52.369022,101.258423 
	C44.737465,102.144333 37.618954,102.970680 30.500444,103.797028 
	C30.056833,103.268990 29.613224,102.740959 29.169615,102.212921 
	C30.687111,99.799110 31.643114,96.337410 33.826984,95.167236 
	C40.478752,91.603043 47.658428,89.038361 54.509041,85.821465 
	C56.350628,84.956696 58.456066,83.472580 59.242760,81.731606 
	C64.946815,69.108360 71.059265,56.757156 80.638786,46.529110 
	C87.453758,39.252766 95.082169,32.990082 105.386375,31.684923 
	C125.636772,29.119951 137.829407,38.926849 139.174561,58.086170 
	C140.096497,71.217377 135.825638,83.328674 131.490082,95.395370 
	C129.301498,101.486618 126.694160,107.444328 124.831757,113.629707 
	C123.657715,117.528931 123.069054,121.731476 123.012306,125.809013 
	C122.935257,131.345490 125.781151,132.772278 130.238144,129.260635 
	C135.576996,125.054192 140.388550,120.178406 145.427277,115.591194 
	C146.862732,114.284386 148.294052,112.973068 149.978302,111.434486 
	C153.427521,115.464622 152.833984,119.522568 151.640808,123.468330 
	C147.628006,136.738342 129.406937,149.469559 115.412178,148.959930 
	C109.470627,148.743561 104.734337,146.638351 102.198151,140.406494 
M81.013931,84.022850 
	C90.474510,84.154778 99.935150,84.353645 109.395607,84.345383 
	C110.790688,84.344162 113.158142,83.660629 113.426559,82.786423 
	C115.704491,75.367409 118.304977,67.913658 116.203522,59.938915 
	C114.821304,54.693581 111.354431,51.773922 106.123093,52.447620 
	C102.595062,52.901966 98.803673,53.798317 95.832283,55.633732 
	C85.890022,61.775028 81.847450,72.024086 78.473381,82.547562 
	C78.382942,82.829659 79.553261,83.515976 81.013931,84.022850 
z"/>
<path fill="#040404" opacity="1.000000" stroke="none" 
	d="
M80.574791,84.018318 
	C79.553261,83.515976 78.382942,82.829659 78.473381,82.547562 
	C81.847450,72.024086 85.890022,61.775028 95.832283,55.633732 
	C98.803673,53.798317 102.595062,52.901966 106.123093,52.447620 
	C111.354431,51.773922 114.821304,54.693581 116.203522,59.938915 
	C118.304977,67.913658 115.704491,75.367409 113.426559,82.786423 
	C113.158142,83.660629 110.790688,84.344162 109.395607,84.345383 
	C99.935150,84.353645 90.474510,84.154778 80.574791,84.018318 
z"/>
</svg>