<?xml version="1.0" encoding="UTF-8"?>
<svg version="1.1" xmlns="http://www.w3.org/2000/svg" width="437" height="898">
<path d="M0 0 C144.21 0 288.42 0 437 0 C437 296.34 437 592.68 437 898 C292.79 898 148.58 898 0 898 C0 601.66 0 305.32 0 0 Z " fill="#B54745" transform="translate(0,0)"/>
<path d="M0 0 C1.084021 0.00523682 2.16804199 0.01047363 3.28491211 0.01586914 C4.45473633 0.0190918 5.62456055 0.02231445 6.82983398 0.02563477 C8.0615332 0.03401367 9.29323242 0.04239258 10.56225586 0.05102539 C12.41560547 0.05779297 12.41560547 0.05779297 14.30639648 0.06469727 C17.37089935 0.07652932 20.43529621 0.09385104 23.49975586 0.11352539 C27.14886988 8.63102215 30.43619356 17.23669673 33.55444336 25.96118164 C34.02348745 27.26625162 34.49282407 28.57121649 34.96243286 29.87608337 C36.18871139 33.28555433 37.41152915 36.69625532 38.63342285 40.1072998 C40.57541971 45.52653591 42.52301789 50.94376316 44.46997833 56.3612175 C45.17368585 58.32015426 45.87653163 60.27939863 46.57928467 62.23867798 C49.52088634 70.43321221 52.50040665 78.61276737 55.57736206 86.75758362 C57.49975586 91.89872896 57.49975586 91.89872896 57.49975586 94.11352539 C49.57975586 94.11352539 41.65975586 94.11352539 33.49975586 94.11352539 C29.49975586 84.11352539 29.49975586 84.11352539 28.49975586 78.11352539 C16.61975586 78.11352539 4.73975586 78.11352539 -7.50024414 78.11352539 C-8.49024414 81.41352539 -9.48024414 84.71352539 -10.50024414 88.11352539 C-11.16024414 90.09352539 -11.82024414 92.07352539 -12.50024414 94.11352539 C-20.42024414 94.11352539 -28.34024414 94.11352539 -36.50024414 94.11352539 C-34.60083544 87.14902681 -32.68651119 80.48163615 -30.19946289 73.75024414 C-29.88617035 72.89113434 -29.57287781 72.03202454 -29.25009155 71.1468811 C-28.23371051 68.36329612 -27.21092409 65.58211764 -26.18774414 62.80102539 C-25.47770599 60.86193405 -24.76799347 58.92272344 -24.05859375 56.98339844 C-22.60212675 53.00459624 -21.14271048 49.02689387 -19.6809082 45.05004883 C-17.90627645 40.22162017 -16.1380913 35.39086796 -14.37266541 30.55906677 C-13.0787248 27.01896201 -11.78208222 23.47985209 -10.48452759 19.94107056 C-9.87097015 18.26700635 -9.25815437 16.59267012 -8.64608765 14.9180603 C-7.79944681 12.60328632 -6.94921494 10.28986509 -6.09790039 7.97680664 C-5.84761078 7.29043121 -5.59732117 6.60405579 -5.33944702 5.8968811 C-3.21496359 0.14597774 -3.21496359 0.14597774 0 0 Z " fill="#E5A481" transform="translate(159.500244140625,417.886474609375)"/>
<path d="M0 0 C7.59 0 15.18 0 23 0 C23 12.21 23 24.42 23 37 C34.88 37 46.76 37 59 37 C59 25.12 59 13.24 59 1 C66.26 1 73.52 1 81 1 C81 31.69 81 62.38 81 94 C73.41 94 65.82 94 58 94 C58 81.13 58 68.26 58 55 C46.45 55 34.9 55 23 55 C23 67.87 23 80.74 23 94 C15.41 94 7.82 94 0 94 C0 62.98 0 31.96 0 0 Z " fill="#E5A581" transform="translate(227,418)"/>
<path d="M0 0 C2 1 2 1 3.14501953 3.81982422 C3.55349121 5.0523291 3.96196289 6.28483398 4.3828125 7.5546875 C4.60194305 8.21203888 4.82107361 8.86939026 5.04684448 9.54666138 C5.50925706 10.93926614 5.96799 12.33309726 6.42333984 13.72802734 C7.12080674 15.86216926 7.83089964 17.99178536 8.54296875 20.12109375 C12 30.57329269 12 30.57329269 12 34 C4.74 34 -2.52 34 -10 34 C-9.27817771 28.94724396 -8.53386196 25.12080493 -6.93359375 20.41015625 C-6.53076172 19.21455078 -6.12792969 18.01894531 -5.71289062 16.78710938 C-5.29201172 15.55798828 -4.87113281 14.32886719 -4.4375 13.0625 C-4.00790487 11.79380883 -3.57886341 10.52493004 -3.15039062 9.25585938 C-2.10568206 6.16868688 -1.05540218 3.08352965 0 0 Z " fill="#B74B47" transform="translate(169,444)"/>
</svg>
