<?xml version="1.0" standalone="no"?>
<!DOCTYPE svg PUBLIC "-//W3C//DTD SVG 20010904//EN"
 "http://www.w3.org/TR/2001/REC-SVG-20010904/DTD/svg10.dtd">
<svg version="1.0" xmlns="http://www.w3.org/2000/svg"
 width="192.000000pt" height="192.000000pt" viewBox="0 0 192.000000 192.000000"
 preserveAspectRatio="xMidYMid meet">

<g transform="translate(0.000000,192.000000) scale(0.100000,-0.100000)"
fill="#000000" stroke="none">
<path d="M125 1905 c-50 -18 -100 -71 -114 -122 -15 -54 -15 -1593 0 -1648 14
-51 73 -110 124 -124 56 -15 1594 -15 1650 0 51 14 110 73 124 124 15 56 15
1594 0 1650 -14 51 -73 110 -124 124 -28 7 -283 11 -830 11 -655 -1 -797 -3
-830 -15z m585 -620 c10 -27 66 -183 125 -345 58 -162 110 -305 115 -318 17
-39 12 -42 -54 -42 l-63 0 -30 78 -29 77 -149 3 -150 2 -29 -80 -28 -80 -64 0
c-35 0 -64 4 -64 8 0 8 236 662 262 725 10 27 13 28 76 25 l64 -3 18 -50z
m460 -105 l0 -160 170 0 170 0 0 160 0 160 65 0 65 0 0 -380 0 -380 -65 0 -65
0 0 165 0 165 -170 0 -170 0 0 -165 0 -165 -65 0 -65 0 0 380 0 380 65 0 65 0
0 -160z"/>
<path d="M572 1008 c-29 -79 -52 -146 -52 -151 0 -4 47 -7 105 -7 58 0 105 3
105 6 0 8 -91 266 -100 282 -4 9 -27 -43 -58 -130z"/>
</g>
</svg>
